<mxfile host="app.diagrams.net" modified="2022-11-17T23:04:08.404Z" agent="5.0 (Windows NT 10.0; Win64; x64) AppleWebKit/537.36 (KHTML, like Gecko) Chrome/107.0.0.0 Safari/537.36" etag="woHyJtc-A7pqk6xGf8P9" version="20.5.3" type="github">
  <diagram id="Dv2m4bRg06dAzyRW52GT" name="Page-1">
    <mxGraphModel dx="726" dy="655" grid="1" gridSize="10" guides="1" tooltips="1" connect="1" arrows="1" fold="1" page="1" pageScale="1" pageWidth="850" pageHeight="1100" math="0" shadow="0">
      <root>
        <mxCell id="0" />
        <mxCell id="1" parent="0" />
      </root>
    </mxGraphModel>
  </diagram>
</mxfile>
